# xmcd
#
# Track frame offsets: 
#        150
#        18692
#        33419
#        63950
#        87625
#        112018
#        146472
#        168631
#        195930
#        222119
#
# Disc length: 3220 seconds
#
# Revision: 0
# Processed by: cddbd v1.5.2PL0 Copyright (c) Steve Scherf et al.
# Submitted via: ExactAudioCopyFreeDBPlugin 1.0
#
DISCID=8c0c920a
DTITLE=The Weeknd - House Of Balloons
DYEAR=2012
DGENRE=R&B
TTITLE0=High For This
TTITLE1=What You Need
TTITLE2=House Of Balloons - Glass Table Girls
TTITLE3=The Morning
TTITLE4=Wicked Games
TTITLE5=The Party and The After Party
TTITLE6=Coming Down
TTITLE7=Loft Music
TTITLE8=The Knowing
TTITLE9=Twenty Eight
EXTD=
EXTT0=
EXTT1=
EXTT2=
EXTT3=
EXTT4=
EXTT5=
EXTT6=
EXTT7=
EXTT8=
EXTT9=
PLAYORDER=
